CMD: ffmpeg -i C:\Users\nhitty\Desktop\WORK\DigitalMarketing\projects\reupVideoEditor\Source\bg+logo\bg.jpg -i C:\Users\nhitty\Desktop\WORK\DigitalMarketing\projects\reupVideoEditor\Source\srcVideoL\1.mp4 -i C:\Users\nhitty\Desktop\WORK\DigitalMarketing\projects\reupVideoEditor\Source\srcVideoR\1.mp4 -i C:\Users\nhitty\Desktop\WORK\DigitalMarketing\projects\reupVideoEditor\Source\bg+logo\mask.png -y -filter_complex [0:v]scale=720:1280,fps=30,trim=duration=9.520181,setpts=PTS-STARTPTS[bg];[1:v]scale=576:1024,fps=30,setpts=PTS-STARTPTS[vL];[2:v]scale=576:1024,fps=30,setpts=PTS-STARTPTS[vR];[3:v]scale=576:1024,format=gray,boxblur=15:10[maskGray];[bg][vL]overlay=x=(main_w-overlay_w)/2-200:y=(main_h-overlay_h)/2[lefted];[maskGray][vR]scale2ref[maskFit][vRfit];[vRfit][maskFit]alphamerge[vRalpha];[lefted][vRalpha]overlay=x=(main_w-overlay_w)/2+200:y=(main_h-overlay_h)/2:format=auto,fps=30[outv] -map [outv] -t 9.520181 -pix_fmt yuv420p -movflags +faststart -loglevel verbose C:\Users\nhitty\Desktop\WORK\DigitalMarketing\projects\reupVideoEditor\output_step2.mp4

ffmpeg version 7.1.1-essentials_build-www.gyan.dev Copyright (c) 2000-2025 the FFmpeg developers
  built with gcc 14.2.0 (Rev1, Built by MSYS2 project)
  configuration: --enable-gpl --enable-version3 --enable-static --disable-w32threads --disable-autodetect --enable-fontconfig --enable-iconv --enable-gnutls --enable-libxml2 --enable-gmp --enable-bzlib --enable-lzma --enable-zlib --enable-libsrt --enable-libssh --enable-libzmq --enable-avisynth --enable-sdl2 --enable-libwebp --enable-libx264 --enable-libx265 --enable-libxvid --enable-libaom --enable-libopenjpeg --enable-libvpx --enable-mediafoundation --enable-libass --enable-libfreetype --enable-libfribidi --enable-libharfbuzz --enable-libvidstab --enable-libvmaf --enable-libzimg --enable-amf --enable-cuda-llvm --enable-cuvid --enable-dxva2 --enable-d3d11va --enable-d3d12va --enable-ffnvcodec --enable-libvpl --enable-nvdec --enable-nvenc --enable-vaapi --enable-libgme --enable-libopenmpt --enable-libopencore-amrwb --enable-libmp3lame --enable-libtheora --enable-libvo-amrwbenc --enable-libgsm --enable-libopencore-amrnb --enable-libopus --enable-libspeex --enable-libvorbis --enable-librubberband
  libavutil      59. 39.100 / 59. 39.100
  libavcodec     61. 19.101 / 61. 19.101
  libavformat    61.  7.100 / 61.  7.100
  libavdevice    61.  3.100 / 61.  3.100
  libavfilter    10.  4.100 / 10.  4.100
  libswscale      8.  3.100 /  8.  3.100
  libswresample   5.  3.100 /  5.  3.100
  libpostproc    58.  3.100 / 58.  3.100
[Parsed_scale_0 @ 0000015aa2aeb600] w:720 h:1280 flags:'' interl:0
[Parsed_scale_4 @ 0000015aa2ae3dc0] w:576 h:1024 flags:'' interl:0
[Parsed_scale_7 @ 0000015aa2ae5980] w:576 h:1024 flags:'' interl:0
[Parsed_scale_10 @ 0000015aa2b15dc0] w:576 h:1024 flags:'' interl:0
[Parsed_scale2ref_14 @ 0000015aa2b16cc0] scale2ref is deprecated, use scale=rw:rh instead
[Parsed_scale2ref_14 @ 0000015aa2b16cc0] w:iw h:ih flags:'' interl:0
[Parsed_fps_17 @ 0000015aa2b170c0] 0 frames in, 0 frames out; 0 frames dropped, 0 frames duplicated.
[Parsed_fps_8 @ 0000015aa2ae5fc0] 0 frames in, 0 frames out; 0 frames dropped, 0 frames duplicated.
[Parsed_fps_5 @ 0000015aa2ae4440] 0 frames in, 0 frames out; 0 frames dropped, 0 frames duplicated.
[Parsed_fps_1 @ 0000015aa2ae0ac0] 0 frames in, 0 frames out; 0 frames dropped, 0 frames duplicated.
Input #0, image2, from 'C:\Users\nhitty\Desktop\WORK\DigitalMarketing\projects\reupVideoEditor\Source\bg+logo\bg.jpg':
  Duration: 00:00:00.04, start: 0.000000, bitrate: 12356 kb/s
  Stream #0:0: Video: mjpeg (Baseline), 1 reference frame, yuvj420p(pc, bt470bg/unknown/unknown, center), 720x1280 [SAR 72:72 DAR 9:16], 25 fps, 25 tbr, 25 tbn
[libaom-av1 @ 0000015aa2b15280] 3.12.0-20-g20f697ad51
[libaom-av1 @ 0000015aa2b15280] cmake ../ -G "Ninja" -DCMAKE_TOOLCHAIN_FILE="../../../local64/etc/toolchain.cmake" -DFORCE_HIGHBITDEPTH_DECODING=0 -DENABLE_DOCS=off -DENABLE_NASM=on -DENABLE_TESTDATA=off -DENABLE_TESTS=off -DENABLE_TOOLS=off
Input #1, mov,mp4,m4a,3gp,3g2,mj2, from 'C:\Users\nhitty\Desktop\WORK\DigitalMarketing\projects\reupVideoEditor\Source\srcVideoL\1.mp4':
  Metadata:
    major_brand     : isom
    minor_version   : 512
    compatible_brands: isomav01iso2mp41
    encoder         : Lavf61.9.107
  Duration: 00:00:16.21, start: 0.000000, bitrate: 1680 kb/s
  Stream #1:0[0x1](und): Video: av1 (libaom-av1) (Main), 1 reference frame (av01 / 0x31307661), yuv420p(tv, smpte170m/smpte170m/bt709), 1080x1920 [SAR 1:1 DAR 9:16], 1637 kb/s, 30 fps, 30 tbr, 15360 tbn (default)
      Metadata:
        handler_name    : VideoHandler
        vendor_id       : [0][0][0][0]
  Stream #1:1[0x2](und): Audio: aac (HE-AAC) (mp4a / 0x6134706D), 44100 Hz, stereo, fltp, 48 kb/s (default)
      Metadata:
        handler_name    : ISO Media file produced by Google Inc.
        vendor_id       : [0][0][0][0]
[h264 @ 0000015aa2b206c0] Reinit context to 1088x1920, pix_fmt: yuv420p
Input #2, mov,mp4,m4a,3gp,3g2,mj2, from 'C:\Users\nhitty\Desktop\WORK\DigitalMarketing\projects\reupVideoEditor\Source\srcVideoR\1.mp4':
  Metadata:
    major_brand     : isom
    minor_version   : 512
    compatible_brands: isomiso2avc1mp41
    encoder         : Lavf61.9.107
  Duration: 00:00:09.52, start: 0.000000, bitrate: 3822 kb/s
  Stream #2:0[0x1](und): Video: h264 (High), 1 reference frame (avc1 / 0x31637661), yuv420p(tv, bt709, progressive, left), 1080x1920 [SAR 1:1 DAR 9:16], 3815 kb/s, 30 fps, 30 tbr, 15360 tbn (default)
      Metadata:
        handler_name    : VideoHandler
        vendor_id       : [0][0][0][0]
  Stream #2:1[0x2](und): Audio: aac (HE-AAC) (mp4a / 0x6134706D), 44100 Hz, stereo, fltp, 48 kb/s (default)
      Metadata:
        handler_name    : ISO Media file produced by Google Inc.
        vendor_id       : [0][0][0][0]
Input #3, png_pipe, from 'C:\Users\nhitty\Desktop\WORK\DigitalMarketing\projects\reupVideoEditor\Source\bg+logo\mask.png':
  Duration: N/A, bitrate: N/A
  Stream #3:0: Video: png, 1 reference frame, rgba(pc, gbr/unknown/unknown), 576x1024, 25 fps, 25 tbr, 25 tbn
[out#0/mp4 @ 0000015aa2b20b80] Adding streams from explicit maps...
[out#0/mp4 @ 0000015aa2b20b80] Creating output stream from an explicitly mapped complex filtergraph 0, output [outv]
[vost#0:0/libx264 @ 0000015aa2da8c80] Created video stream from complex filtergraph 0:[fps:default]
[vost#0:0/libx264 @ 0000015aa2da8c80] 
[fc#0 @ 0000015aa2ae00c0] Binding input with label '0:v' to input stream 0:0
[fc#0 @ 0000015aa2ae00c0] Binding input with label '1:v' to input stream 1:0
[libaom-av1 @ 0000015aa2b42dc0] 3.12.0-20-g20f697ad51
[libaom-av1 @ 0000015aa2b42dc0] cmake ../ -G "Ninja" -DCMAKE_TOOLCHAIN_FILE="../../../local64/etc/toolchain.cmake" -DFORCE_HIGHBITDEPTH_DECODING=0 -DENABLE_DOCS=off -DENABLE_NASM=on -DENABLE_TESTDATA=off -DENABLE_TESTS=off -DENABLE_TOOLS=off
[fc#0 @ 0000015aa2ae00c0] Binding input with label '2:v' to input stream 2:0
[fc#0 @ 0000015aa2ae00c0] Binding input with label '3:v' to input stream 3:0
Stream mapping:
  Stream #0:0 (mjpeg) -> scale:default
  Stream #1:0 (libaom-av1) -> scale:default
  Stream #2:0 (h264) -> scale:default
  Stream #3:0 (png) -> scale:default
  fps:default -> Stream #0:0 (libx264)
[vost#0:0/libx264 @ 0000015aa2da8c80] Starting thread...
[fc#0 @ 0000015aa2ae00c0] Starting thread...
[vist#0:0/mjpeg @ 0000015aa2ae0a80] [dec:mjpeg @ 0000015aa2bb0c40] Starting thread...
[vist#1:0/av1 @ 0000015aa2daee00] [dec:libaom-av1 @ 0000015aa2d6bdc0] Starting thread...
[vist#2:0/h264 @ 0000015aa2dae6c0] [dec:h264 @ 0000015aa2cf1240] Starting thread...
[vist#3:0/png @ 0000015aa2da95c0] [dec:png @ 0000015aa2da8340] Starting thread...
[in#0/image2 @ 0000015aa2ae9cc0] Starting thread...
[in#1/mov,mp4,m4a,3gp,3g2,mj2 @ 0000015aa2b15700] Starting thread...
[in#2/mov,mp4,m4a,3gp,3g2,mj2 @ 0000015aa2b31e80] Starting thread...
[in#3/png_pipe @ 0000015aa2b4c680] Starting thread...
[in#0/image2 @ 0000015aa2ae9cc0] EOF while reading input
Press [q] to stop, [?] for help
[in#0/image2 @ 0000015aa2ae9cc0] Terminating thread with return code 0 (success)
[vist#0:0/mjpeg @ 0000015aa2ae0a80] [dec:mjpeg @ 0000015aa2bb0c40] Decoder thread received EOF packet
[vist#0:0/mjpeg @ 0000015aa2ae0a80] [dec:mjpeg @ 0000015aa2bb0c40] Decoder returned EOF, finishing
[vist#0:0/mjpeg @ 0000015aa2ae0a80] [dec:mjpeg @ 0000015aa2bb0c40] Terminating thread with return code 0 (success)
[h264 @ 0000015aa2aec7c0] Reinit context to 1088x1920, pix_fmt: yuv420p
[in#3/png_pipe @ 0000015aa2b4c680] EOF while reading input
[in#3/png_pipe @ 0000015aa2b4c680] Terminating thread with return code 0 (success)
[vist#3:0/png @ 0000015aa2da95c0] [dec:png @ 0000015aa2da8340] Decoder thread received EOF packet
[vist#3:0/png @ 0000015aa2da95c0] [dec:png @ 0000015aa2da8340] Decoder returned EOF, finishing
[vist#3:0/png @ 0000015aa2da95c0] [dec:png @ 0000015aa2da8340] Terminating thread with return code 0 (success)
[Parsed_scale_0 @ 0000015aa2b15ac0] w:720 h:1280 flags:'' interl:0
[Parsed_scale_4 @ 0000015aa75fc780] w:576 h:1024 flags:'' interl:0
[Parsed_scale_7 @ 0000015aa75fe380] w:576 h:1024 flags:'' interl:0
[Parsed_scale_10 @ 0000015aa75fb780] w:576 h:1024 flags:'' interl:0
[Parsed_scale2ref_14 @ 0000015aa75fd980] scale2ref is deprecated, use scale=rw:rh instead
[Parsed_scale2ref_14 @ 0000015aa75fd980] w:iw h:ih flags:'' interl:0
[graph 0 input from stream 0:0 @ 0000015aa75fd580] w:720 h:1280 pixfmt:yuvj420p tb:1/25 fr:25/1 sar:72/72 csp:bt470bg range:pc
[graph 0 input from stream 1:0 @ 0000015aa75fc380] w:1080 h:1920 pixfmt:yuv420p tb:1/15360 fr:30/1 sar:1/1 csp:smpte170m range:tv
[graph 0 input from stream 2:0 @ 0000015aa75fb980] w:1080 h:1920 pixfmt:yuv420p tb:1/15360 fr:30/1 sar:1/1 csp:bt709 range:tv
[graph 0 input from stream 3:0 @ 0000015aa75fda80] w:576 h:1024 pixfmt:rgba tb:1/25 fr:25/1 sar:0/1 csp:gbr range:pc
[auto_scale_0 @ 0000015aa75fef80] w:iw h:ih flags:'' interl:0
[format @ 0000015aa75fb480] auto-inserting filter 'auto_scale_0' between the filter 'Parsed_fps_17' and the filter 'format'
[swscaler @ 0000015ab34e98c0] deprecated pixel format used, make sure you did set range correctly
[Parsed_scale_0 @ 0000015aa2b15ac0] w:720 h:1280 fmt:yuvj420p csp:bt470bg range:pc sar:72/72 -> w:720 h:1280 fmt:yuva420p csp:bt470bg range:pc sar:1/1 flags:0x00000004
[Parsed_scale_0 @ 0000015aa2b15ac0] [framesync @ 0000015aa2d8b268] Selected 1/25 time base
[Parsed_scale_0 @ 0000015aa2b15ac0] [framesync @ 0000015aa2d8b268] Sync level 1
[Parsed_fps_1 @ 0000015aa2b15bc0] fps=30/1
[Parsed_trim_2 @ 0000015aa75fdc80] TB:0.033333 FRAME_RATE:30.000000 SAMPLE_RATE:nan
[Parsed_scale_4 @ 0000015aa75fc780] w:1080 h:1920 fmt:yuv420p csp:smpte170m range:tv sar:1/1 -> w:576 h:1024 fmt:yuva420p csp:bt470bg range:pc sar:1/1 flags:0x00000004
[Parsed_scale_4 @ 0000015aa75fc780] [framesync @ 0000015aa2d8aca8] Selected 1/15360 time base
[Parsed_scale_4 @ 0000015aa75fc780] [framesync @ 0000015aa2d8aca8] Sync level 1
[Parsed_fps_5 @ 0000015aa75fd380] fps=30/1
[Parsed_fps_5 @ 0000015aa75fd380] TB:0.033333 FRAME_RATE:30.000000 SAMPLE_RATE:nan
[Parsed_overlay_13 @ 0000015aa75fb680] main w:720 h:1280 fmt:yuva420p overlay w:576 h:1024 fmt:yuva420p
[Parsed_overlay_13 @ 0000015aa75fb680] [framesync @ 0000015aad84d928] Selected 1/30 time base
[Parsed_overlay_13 @ 0000015aa75fb680] [framesync @ 0000015aad84d928] Sync level 2
[Parsed_scale_10 @ 0000015aa75fb780] w:576 h:1024 fmt:rgba csp:gbr range:pc sar:0/1 -> w:576 h:1024 fmt:gray csp:unknown range:pc sar:0/1 flags:0x00000004
[Parsed_scale_10 @ 0000015aa75fb780] [framesync @ 0000015aa2d8af68] Selected 1/25 time base
[Parsed_scale_10 @ 0000015aa75fb780] [framesync @ 0000015aa2d8af68] Sync level 1
[Parsed_boxblur_12 @ 0000015aa75fbb80] luma_radius:15 luma_power:10 chroma_radius:15 chroma_power:10 alpha_radius:15 alpha_power:10 w:576 chroma_w:576 h:1024 chroma_h:1024
[swscaler @ 0000015ab601a040] [swscaler @ 0000015ab602d940] YUV color matrix differs for YUV->YUV, using intermediate RGB to convert
[swscaler @ 0000015ab601a040] [swscaler @ 0000015ab603bb00] YUV color matrix differs for YUV->YUV, using intermediate RGB to convert
[swscaler @ 0000015ab601a040] [swscaler @ 0000015ab6069540] YUV color matrix differs for YUV->YUV, using intermediate RGB to convert
[swscaler @ 0000015ab601a040] [swscaler @ 0000015ab60c1b00] YUV color matrix differs for YUV->YUV, using intermediate RGB to convert
[swscaler @ 0000015ab601a040] [swscaler @ 0000015ab60a9a00] YUV color matrix differs for YUV->YUV, using intermediate RGB to convert
[swscaler @ 0000015ab601a040] [swscaler @ 0000015ab6183040] YUV color matrix differs for YUV->YUV, using intermediate RGB to convert
[swscaler @ 0000015ab601a040] [swscaler @ 0000015ab6190000] YUV color matrix differs for YUV->YUV, using intermediate RGB to convert
[swscaler @ 0000015ab601a040] [swscaler @ 0000015ab619d000] YUV color matrix differs for YUV->YUV, using intermediate RGB to convert
[swscaler @ 0000015ab601a040] [swscaler @ 0000015ab6243040] YUV color matrix differs for YUV->YUV, using intermediate RGB to convert
[swscaler @ 0000015ab601a040] [swscaler @ 0000015ab6278140] YUV color matrix differs for YUV->YUV, using intermediate RGB to convert
[swscaler @ 0000015ab601a040] [swscaler @ 0000015ab62bf3c0] YUV color matrix differs for YUV->YUV, using intermediate RGB to convert
[swscaler @ 0000015ab601a040] [swscaler @ 0000015ab62cc3c0] YUV color matrix differs for YUV->YUV, using intermediate RGB to convert
[swscaler @ 0000015ab601a040] [swscaler @ 0000015ab62d9380] YUV color matrix differs for YUV->YUV, using intermediate RGB to convert
[swscaler @ 0000015ab601a040] [swscaler @ 0000015ab63c0040] YUV color matrix differs for YUV->YUV, using intermediate RGB to convert
[swscaler @ 0000015ab601a040] [swscaler @ 0000015ab63cd000] YUV color matrix differs for YUV->YUV, using intermediate RGB to convert
[swscaler @ 0000015ab601a040] [swscaler @ 0000015ab63da000] YUV color matrix differs for YUV->YUV, using intermediate RGB to convert
[Parsed_scale_7 @ 0000015aa75fe380] w:1080 h:1920 fmt:yuv420p csp:bt709 range:tv sar:1/1 -> w:576 h:1024 fmt:yuva420p csp:bt470bg range:pc sar:1/1 flags:0x00000004
[Parsed_scale_7 @ 0000015aa75fe380] [framesync @ 0000015aa2d8baa8] Selected 1/15360 time base
[Parsed_scale_7 @ 0000015aa75fe380] [framesync @ 0000015aa2d8baa8] Sync level 1
[Parsed_fps_8 @ 0000015aa75fe680] fps=30/1
[Parsed_fps_8 @ 0000015aa75fe680] TB:0.033333 FRAME_RATE:30.000000 SAMPLE_RATE:nan
[Parsed_scale2ref_14 @ 0000015aa75fd980] w:576 h:1024 fmt:yuva420p csp:bt470bg range:pc sar:1/1 -> w:576 h:1024 fmt:gray csp:unknown range:pc sar:0/1 flags:(null)
[Parsed_alphamerge_15 @ 0000015aa75fbd80] [framesync @ 0000015aa6e4b150] Selected 1/150 time base
[Parsed_alphamerge_15 @ 0000015aa75fbd80] [framesync @ 0000015aa6e4b150] Sync level 2
[Parsed_overlay_16 @ 0000015aa75fc280] main w:720 h:1280 fmt:yuva420p overlay w:576 h:1024 fmt:yuva420p
[Parsed_overlay_16 @ 0000015aa75fc280] [framesync @ 0000015aad84dae8] Selected 1/30 time base
[Parsed_overlay_16 @ 0000015aa75fc280] [framesync @ 0000015aad84dae8] Sync level 2
[Parsed_fps_17 @ 0000015aa75fe480] fps=30/1
[auto_scale_0 @ 0000015aa75fef80] w:720 h:1280 fmt:yuva420p csp:bt470bg range:pc sar:1/1 -> w:720 h:1280 fmt:yuv420p csp:bt470bg range:pc sar:1/1 flags:0x00000004
[auto_scale_0 @ 0000015aa75fef80] [framesync @ 0000015aa2d8e4e8] Selected 1/30 time base
[auto_scale_0 @ 0000015aa75fef80] [framesync @ 0000015aa2d8e4e8] Sync level 1
[graph 0 input from stream 0:0 @ 0000015aa75fd580] video frame properties congruent with link at pts_time: 0
[graph 0 input from stream 1:0 @ 0000015aa75fc380] video frame properties congruent with link at pts_time: 0
[graph 0 input from stream 2:0 @ 0000015aa75fb980] video frame properties congruent with link at pts_time: 0
[Parsed_scale_0 @ 0000015aa2b15ac0] [framesync @ 0000015aa2d8b268] Sync level 0
[Parsed_fps_1 @ 0000015aa2b15bc0] Set first pts to 0
[graph 0 input from stream 3:0 @ 0000015aa75fda80] video frame properties congruent with link at pts_time: 0
[Parsed_fps_8 @ 0000015aa75fe680] Set first pts to 0
[Parsed_scale_10 @ 0000015aa75fb780] [framesync @ 0000015aa2d8af68] Sync level 0
[fc#0 @ 0000015aa2ae00c0] Input 2 no longer accepts new data
[vist#2:0/h264 @ 0000015aa2dae6c0] [dec:h264 @ 0000015aa2cf1240] Decoder returned EOF, finishing
[vist#2:0/h264 @ 0000015aa2dae6c0] [dec:h264 @ 0000015aa2cf1240] Terminating thread with return code 0 (success)
[Parsed_fps_5 @ 0000015aa75fd380] Set first pts to 0
[Parsed_overlay_13 @ 0000015aa75fb680] [framesync @ 0000015aad84d928] Sync level 1
[in#1/mov,mp4,m4a,3gp,3g2,mj2 @ 0000015aa2b15700] EOF while reading input
[in#1/mov,mp4,m4a,3gp,3g2,mj2 @ 0000015aa2b15700] Terminating thread with return code 0 (success)
[vist#1:0/av1 @ 0000015aa2daee00] [dec:libaom-av1 @ 0000015aa2d6bdc0] Decoder thread received EOF packet
[vist#1:0/av1 @ 0000015aa2daee00] [dec:libaom-av1 @ 0000015aa2d6bdc0] Decoder returned EOF, finishing
[vist#1:0/av1 @ 0000015aa2daee00] [dec:libaom-av1 @ 0000015aa2d6bdc0] Terminating thread with return code 0 (success)
[Parsed_scale_4 @ 0000015aa75fc780] [framesync @ 0000015aa2d8aca8] Sync level 0
[fc#0 @ 0000015aa2ae00c0] Filtering thread received EOF
[fc#0 @ 0000015aa2ae00c0] [vo0->#0:0 @ 0000015aa2ae9fc0] No filtered frames for output stream, trying to initialize anyway.
[vist#2:0/h264 @ 0000015aa2dae6c0] All consumers of this stream are done
[in#2/mov,mp4,m4a,3gp,3g2,mj2 @ 0000015aa2b31e80] All consumers are done
[in#2/mov,mp4,m4a,3gp,3g2,mj2 @ 0000015aa2b31e80] Terminating thread with return code 0 (success)
[libx264 @ 0000015aa2bb00c0] using SAR=1/1
[libx264 @ 0000015aa2bb00c0] using cpu capabilities: MMX2 SSE2Fast SSSE3 SSE4.2 AVX FMA3 BMI2 AVX2
[libx264 @ 0000015aa2bb00c0] profile High, level 3.1, 4:2:0, 8-bit
[libx264 @ 0000015aa2bb00c0] 264 - core 164 r3204 373697b - H.264/MPEG-4 AVC codec - Copyleft 2003-2025 - http://www.videolan.org/x264.html - options: cabac=1 ref=3 deblock=1:0:0 analyse=0x3:0x113 me=hex subme=7 psy=1 psy_rd=1.00:0.00 mixed_ref=1 me_range=16 chroma_me=1 trellis=1 8x8dct=1 cqm=0 deadzone=21,11 fast_pskip=1 chroma_qp_offset=-2 threads=24 lookahead_threads=4 sliced_threads=0 nr=0 decimate=1 interlaced=0 bluray_compat=0 constrained_intra=0 bframes=3 b_pyramid=2 b_adapt=1 b_bias=0 direct=1 weightb=1 open_gop=0 weightp=2 keyint=250 keyint_min=25 scenecut=40 intra_refresh=0 rc_lookahead=40 rc=crf mbtree=1 crf=23.0 qcomp=0.60 qpmin=0 qpmax=69 qpstep=4 ip_ratio=1.40 aq=1:1.00
Output #0, mp4, to 'C:\Users\nhitty\Desktop\WORK\DigitalMarketing\projects\reupVideoEditor\output_step2.mp4':
  Metadata:
    encoder         : Lavf61.7.100
  Stream #0:0: Video: h264, 1 reference frame (avc1 / 0x31637661), yuv420p(progressive), 720x1280 [SAR 1:1 DAR 9:16], q=2-31, 30 fps, 15360 tbn
      Metadata:
        encoder         : Lavc61.19.101 libx264
      Side data:
        cpb: bitrate max/min/avg: 0/0/0 buffer size: 0 vbv_delay: N/A
[out#0/mp4 @ 0000015aa2b20b80] Starting thread...
[vost#0:0/libx264 @ 0000015aa2da8c80] Encoder thread received EOF
[vost#0:0/libx264 @ 0000015aa2da8c80] Terminating thread with return code 0 (success)
[out#0/mp4 @ 0000015aa2b20b80] All streams finished
[out#0/mp4 @ 0000015aa2b20b80] Terminating thread with return code 0 (success)
[Parsed_fps_17 @ 0000015aa75fe480] 1 frames in, 0 frames out; 1 frames dropped, 0 frames duplicated.
[Parsed_fps_8 @ 0000015aa75fe680] 2 frames in, 1 frames out; 1 frames dropped, 0 frames duplicated.
[Parsed_fps_5 @ 0000015aa75fd380] 483 frames in, 482 frames out; 1 frames dropped, 0 frames duplicated.
[Parsed_fps_1 @ 0000015aa2b15bc0] 1 frames in, 1 frames out; 0 frames dropped, 0 frames duplicated.
[fc#0 @ 0000015aa2ae00c0] Terminating thread with return code 0 (success)
[mp4 @ 0000015aa2b35700] Starting second pass: moving the moov atom to the beginning of the file
[AVIOContext @ 0000015aacac8140] Statistics: 48 bytes read, 0 seeks
[AVIOContext @ 0000015aa2bb0ac0] Statistics: 281 bytes written, 4 seeks, 4 writeouts
[out#0/mp4 @ 0000015aa2b20b80] Output file #0 (C:\Users\nhitty\Desktop\WORK\DigitalMarketing\projects\reupVideoEditor\output_step2.mp4):
[out#0/mp4 @ 0000015aa2b20b80]   Output stream #0:0 (video): 0 frames encoded; 0 packets muxed (0 bytes); 
[out#0/mp4 @ 0000015aa2b20b80]   Total: 0 packets (0 bytes) muxed
[out#0/mp4 @ 0000015aa2b20b80] video:0KiB audio:0KiB subtitle:0KiB other streams:0KiB global headers:0KiB muxing overhead: unknown
[out#0/mp4 @ 0000015aa2b20b80] Output file is empty, nothing was encoded(check -ss / -t / -frames parameters if used)
frame=    0 fps=0.0 q=0.0 Lsize=       0KiB time=N/A bitrate=N/A speed=N/A    
[in#0/image2 @ 0000015aa2ae9cc0] Input file #0 (C:\Users\nhitty\Desktop\WORK\DigitalMarketing\projects\reupVideoEditor\Source\bg+logo\bg.jpg):
[in#0/image2 @ 0000015aa2ae9cc0]   Input stream #0:0 (video): 1 packets read (61780 bytes); 1 frames decoded; 0 decode errors; 
[in#0/image2 @ 0000015aa2ae9cc0]   Total: 1 packets (61780 bytes) demuxed
[AVIOContext @ 0000015aa2ae3100] Statistics: 61780 bytes read, 0 seeks
[in#1/mov,mp4,m4a,3gp,3g2,mj2 @ 0000015aa2b15700] Input file #1 (C:\Users\nhitty\Desktop\WORK\DigitalMarketing\projects\reupVideoEditor\Source\srcVideoL\1.mp4):
[in#1/mov,mp4,m4a,3gp,3g2,mj2 @ 0000015aa2b15700]   Input stream #1:0 (video): 483 packets read (3295250 bytes); 483 frames decoded; 0 decode errors; 
[in#1/mov,mp4,m4a,3gp,3g2,mj2 @ 0000015aa2b15700]   Total: 483 packets (3295250 bytes) demuxed
[AVIOContext @ 0000015aa2b14b00] Statistics: 3447416 bytes read, 2 seeks
[in#2/mov,mp4,m4a,3gp,3g2,mj2 @ 0000015aa2b31e80] Input file #2 (C:\Users\nhitty\Desktop\WORK\DigitalMarketing\projects\reupVideoEditor\Source\srcVideoR\1.mp4):
[in#2/mov,mp4,m4a,3gp,3g2,mj2 @ 0000015aa2b31e80]   Input stream #2:0 (video): 27 packets read (512352 bytes); 9 frames decoded; 0 decode errors; 
[in#2/mov,mp4,m4a,3gp,3g2,mj2 @ 0000015aa2b31e80]   Total: 27 packets (512352 bytes) demuxed
[AVIOContext @ 0000015aa2af3200] Statistics: 576268 bytes read, 2 seeks
[in#3/png_pipe @ 0000015aa2b4c680] Input file #3 (C:\Users\nhitty\Desktop\WORK\DigitalMarketing\projects\reupVideoEditor\Source\bg+logo\mask.png):
[in#3/png_pipe @ 0000015aa2b4c680]   Input stream #3:0 (video): 1 packets read (4634 bytes); 1 frames decoded; 0 decode errors; 
[in#3/png_pipe @ 0000015aa2b4c680]   Total: 1 packets (4634 bytes) demuxed
[AVIOContext @ 0000015aa2b32ec0] Statistics: 4634 bytes read, 0 seeks

